{"asset":{"version":"2.0","generator":"babylon.js glTF exporter for Maya 2018 v20200228.3"},"scene":0,"scenes":[{"nodes":[0,1,2,3,4,5,6,7,8,9,10,11,12,13],"extensions":{}}],"nodes":[{"name":"transform1"},{"mesh":0,"name":"pPipe1"},{"mesh":1,"name":"pCylinder1"},{"mesh":2,"name":"pSphere1"},{"mesh":3,"name":"pSphere2"},{"mesh":4,"name":"pSphere3"},{"mesh":5,"name":"pCube1"},{"mesh":6,"name":"pPipe2"},{"name":"transform2"},{"mesh":7,"name":"typeMesh1"},{"name":"Default light"},{"camera":0,"translation":[0.0583745427,-0.118608274,0.126280636],"rotation":[0.311369419,0.26077646,-0.08928374,0.90943563],"name":"persp1"},{"camera":1,"translation":[0.0,-10.0009995,0.0],"rotation":[0.707106769,0.0,0.0,0.707106769],"name":"bottom"},{"camera":2,"translation":[0.0,0.0,-10.0009995],"rotation":[0.0,1.0,0.0,6.123234E-17],"name":"back"}],"cameras":[{"perspective":{"yfov":0.3251597,"zfar":10000.0,"znear":0.1},"type":"perspective","name":"persp1"},{"perspective":{"yfov":0.6605947,"zfar":10000.0,"znear":0.1},"type":"perspective","name":"bottom"},{"perspective":{"yfov":0.6605947,"zfar":10000.0,"znear":0.1},"type":"perspective","name":"back"}],"meshes":[{"primitives":[{"attributes":{"POSITION":1,"TANGENT":2,"NORMAL":3,"TEXCOORD_0":4},"indices":0,"material":0}],"name":"pPipe1"},{"primitives":[{"attributes":{"POSITION":6,"TANGENT":7,"NORMAL":8,"TEXCOORD_0":9},"indices":5,"material":1}],"name":"pCylinder1"},{"primitives":[{"attributes":{"POSITION":11,"TANGENT":12,"NORMAL":13,"TEXCOORD_0":14},"indices":10,"material":2}],"name":"pSphere1"},{"primitives":[{"attributes":{"POSITION":16,"TANGENT":17,"NORMAL":18,"TEXCOORD_0":19},"indices":15,"material":3}],"name":"pSphere2"},{"primitives":[{"attributes":{"POSITION":21,"TANGENT":22,"NORMAL":23,"TEXCOORD_0":24},"indices":20,"material":4}],"name":"pSphere3"},{"primitives":[{"attributes":{"POSITION":26,"TANGENT":27,"NORMAL":28,"TEXCOORD_0":29},"indices":25,"material":5}],"name":"pCube1"},{"primitives":[{"attributes":{"POSITION":31,"TANGENT":32,"NORMAL":33,"TEXCOORD_0":34},"indices":30,"material":6}],"name":"pPipe2"},{"primitives":[{"attributes":{"POSITION":36,"TANGENT":37,"NORMAL":38,"COLOR_0":39,"TEXCOORD_0":40},"indices":35,"material":7}],"name":"typeMesh1"}],"accessors":[{"bufferView":0,"componentType":5123,"count":8880,"type":"SCALAR","name":"accessorIndices"},{"bufferView":1,"componentType":5126,"count":1559,"max":[0.00250000018,0.0105869025,0.0106452275],"min":[-0.00250000018,-0.010586909,-0.0104900049],"type":"VEC3","name":"accessorPositions"},{"bufferView":2,"componentType":5126,"count":1559,"type":"VEC4","name":"accessorTangents"},{"bufferView":1,"byteOffset":18708,"componentType":5126,"count":1559,"type":"VEC3","name":"accessorNormals"},{"bufferView":3,"componentType":5126,"count":1559,"type":"VEC2","name":"accessorUVs"},{"bufferView":0,"byteOffset":17760,"componentType":5123,"count":468,"type":"SCALAR","name":"accessorIndices"},{"bufferView":1,"byteOffset":37416,"componentType":5126,"count":162,"max":[0.00175001018,0.008787326,0.008787327],"min":[0.00138449541,-0.008787328,-0.00878733],"type":"VEC3","name":"accessorPositions"},{"bufferView":2,"byteOffset":24944,"componentType":5126,"count":162,"type":"VEC4","name":"accessorTangents"},{"bufferView":1,"byteOffset":39360,"componentType":5126,"count":162,"type":"VEC3","name":"accessorNormals"},{"bufferView":3,"byteOffset":12472,"componentType":5126,"count":162,"type":"VEC2","name":"accessorUVs"},{"bufferView":0,"byteOffset":18696,"componentType":5123,"count":1620,"type":"SCALAR","name":"accessorIndices"},{"bufferView":1,"byteOffset":41304,"componentType":5126,"count":399,"max":[0.00125552469,0.008523173,0.008476484],"min":[-0.008741788,-0.008523176,-0.008476488],"type":"VEC3","name":"accessorPositions"},{"bufferView":2,"byteOffset":27536,"componentType":5126,"count":399,"type":"VEC4","name":"accessorTangents"},{"bufferView":1,"byteOffset":46092,"componentType":5126,"count":399,"type":"VEC3","name":"accessorNormals"},{"bufferView":3,"byteOffset":13768,"componentType":5126,"count":399,"type":"VEC2","name":"accessorUVs"},{"bufferView":0,"byteOffset":21936,"componentType":5123,"count":2100,"type":"SCALAR","name":"accessorIndices"},{"bufferView":1,"byteOffset":50880,"componentType":5126,"count":457,"max":[-0.000516265631,0.00269749458,0.00269749458],"min":[-0.00872959,-0.00269749528,-0.00269749574],"type":"VEC3","name":"accessorPositions"},{"bufferView":2,"byteOffset":33920,"componentType":5126,"count":457,"type":"VEC4","name":"accessorTangents"},{"bufferView":1,"byteOffset":56364,"componentType":5126,"count":457,"type":"VEC3","name":"accessorNormals"},{"bufferView":3,"byteOffset":16960,"componentType":5126,"count":457,"type":"VEC2","name":"accessorUVs"},{"bufferView":0,"byteOffset":26136,"componentType":5123,"count":4044,"type":"SCALAR","name":"accessorIndices"},{"bufferView":1,"byteOffset":61848,"componentType":5126,"count":1669,"max":[-0.00130639609,0.00953062251,0.009438406],"min":[-0.05621712,-0.009450165,-0.009438406],"type":"VEC3","name":"accessorPositions"},{"bufferView":2,"byteOffset":41232,"componentType":5126,"count":1669,"type":"VEC4","name":"accessorTangents"},{"bufferView":1,"byteOffset":81876,"componentType":5126,"count":1669,"type":"VEC3","name":"accessorNormals"},{"bufferView":3,"byteOffset":20616,"componentType":5126,"count":1669,"type":"VEC2","name":"accessorUVs"},{"bufferView":0,"byteOffset":34224,"componentType":5123,"count":576,"type":"SCALAR","name":"accessorIndices"},{"bufferView":1,"byteOffset":101904,"componentType":5126,"count":145,"max":[-0.0154310446,0.00132107374,0.007076112],"min":[-0.0230353139,-0.00132139353,0.0051311804],"type":"VEC3","name":"accessorPositions"},{"bufferView":2,"byteOffset":67936,"componentType":5126,"count":145,"type":"VEC4","name":"accessorTangents"},{"bufferView":1,"byteOffset":103644,"componentType":5126,"count":145,"type":"VEC3","name":"accessorNormals"},{"bufferView":3,"byteOffset":33968,"componentType":5126,"count":145,"type":"VEC2","name":"accessorUVs"},{"bufferView":0,"byteOffset":35376,"componentType":5123,"count":480,"type":"SCALAR","name":"accessorIndices"},{"bufferView":1,"byteOffset":105384,"componentType":5126,"count":168,"max":[-0.0517286,0.002263508,0.00637212163],"min":[-0.0523048379,-0.00221840269,0.005795884],"type":"VEC3","name":"accessorPositions"},{"bufferView":2,"byteOffset":70256,"componentType":5126,"count":168,"type":"VEC4","name":"accessorTangents"},{"bufferView":1,"byteOffset":107400,"componentType":5126,"count":168,"type":"VEC3","name":"accessorNormals"},{"bufferView":3,"byteOffset":35128,"componentType":5126,"count":168,"type":"VEC2","name":"accessorUVs"},{"bufferView":0,"byteOffset":36336,"componentType":5123,"count":3576,"type":"SCALAR","name":"accessorIndices"},{"bufferView":1,"byteOffset":109416,"componentType":5126,"count":892,"max":[-0.0552165769,0.00280300132,0.00175750011],"min":[-0.0560876727,-0.00243596081,-0.00160393468],"type":"VEC3","name":"accessorPositions"},{"bufferView":2,"byteOffset":72944,"componentType":5126,"count":892,"type":"VEC4","name":"accessorTangents"},{"bufferView":1,"byteOffset":120120,"componentType":5126,"count":892,"type":"VEC3","name":"accessorNormals"},{"bufferView":2,"byteOffset":87216,"componentType":5126,"count":892,"type":"VEC4","name":"accessorColors"},{"bufferView":3,"byteOffset":36472,"componentType":5126,"count":892,"type":"VEC2","name":"accessorUVs"}],"bufferViews":[{"buffer":0,"byteLength":43488,"name":"bufferViewScalar"},{"buffer":0,"byteOffset":43488,"byteLength":130824,"byteStride":12,"name":"bufferViewFloatVec3"},{"buffer":0,"byteOffset":174312,"byteLength":101488,"byteStride":16,"name":"bufferViewFloatVec4"},{"buffer":0,"byteOffset":275800,"byteLength":43608,"byteStride":8,"name":"bufferViewFloatVec2"}],"buffers":[{"uri":"flash_light1.bin","byteLength":319408}],"materials":[{"pbrMetallicRoughness":{"baseColorFactor":[0.0,0.0,1.0,1.0],"metallicFactor":0.0,"roughnessFactor":0.450053632},"name":"lambert2"},{"pbrMetallicRoughness":{"baseColorFactor":[0.0,1.0,1.0,1.0],"metallicFactor":0.0,"roughnessFactor":0.450053632},"name":"lambert3"},{"pbrMetallicRoughness":{"baseColorFactor":[0.9338,0.5126,0.5126,1.0],"metallicFactor":0.0,"roughnessFactor":0.450053632},"name":"lambert7"},{"pbrMetallicRoughness":{"baseColorFactor":[0.423066735,1.0,0.0,1.0],"metallicFactor":0.0,"roughnessFactor":0.450053632},"name":"lambert8"},{"pbrMetallicRoughness":{"baseColorFactor":[1.0,0.3929,0.0,1.0],"metallicFactor":0.0,"roughnessFactor":0.450053632},"name":"lambert5"},{"pbrMetallicRoughness":{"baseColorFactor":[1.0,1.0,0.0,1.0],"metallicFactor":0.0,"roughnessFactor":0.450053632},"name":"lambert4"},{"pbrMetallicRoughness":{"baseColorFactor":[1.0,0.0,0.0,1.0],"metallicFactor":0.0,"roughnessFactor":0.450053632},"name":"lambert6"},{"pbrMetallicRoughness":{"baseColorFactor":[0.0,0.9230666,1.0,1.0],"metallicFactor":0.0,"roughnessFactor":0.450053632},"name":"lambert10"}]}